<?xml version="1.0" encoding="UTF-8"?>
<svg id="_圖層_1" data-name="圖層_1" xmlns="http://www.w3.org/2000/svg" version="1.1" xmlns:xlink="http://www.w3.org/1999/xlink" viewBox="0 0 231 257.03">
  <!-- Generator: Adobe Illustrator 30.2.1, SVG Export Plug-In . SVG Version: 2.1.1 Build 1)  -->
  <defs>
    <style>
      .st0 {
        fill: none;
      }

      .st1 {
        fill: #98dcbd;
      }

      .st2 {
        fill: #fefefe;
      }

      .st3 {
        fill: #355dce;
      }

      .st4 {
        clip-path: url(#clippath);
      }
    </style>
    <clipPath id="clippath">
      <circle class="st0" cx="165.68" cy="64.52" r="45.33"/>
    </clipPath>
  </defs>
  <path class="st3" d="M166.79,162.52c-12.26-9.9-23.5-19.39-36.31-27.03,28.07-1.39,55.31-5.25,76.4-24.8,74.96-69.5-59.47-158.33-98.53-64.39-10.36,23.41-6.68,47.96-31.22,56.56-4.44,1.56-7.61-2.84-7.44-6.67s-.76-49.16-1.24-55.49c-1.29-16.99-15.36-33.84-32.21-33.84S9.9,20.19,7.44,40.7c-2.46,20.51-6.87,146.82,0,181.82,3.8,19.37,13.66,30.5,30.5,30.5s28.13-11.17,30.5-30.5c.88-7.13,1.19-57.29,1.38-60.15s1.64-6.96,7.97-5.3c28.41,7.48,38.37,39.43,49.11,60.78,16.33,32.44,51,45.78,72.78,27.89,14.83-12.18,14.32-33.14,7.72-45.56-10.33-19.44-31.94-30.67-40.61-37.67Z"/>
  <circle class="st1" cx="165.68" cy="64.52" r="45.33"/>
  <g class="st4">
    <rect class="st2" x="185.62" y="23.97" width="22.56" height="22.56" rx="11.28" ry="11.28"/>
  </g>
  <path class="st3" d="M186.78,61.38l-28.17-16.26c-3.09-1.78-6.95.45-6.95,4.02v32.52c0,3.57,3.86,5.8,6.95,4.02l28.17-16.26c3.09-1.78,3.09-6.25,0-8.03Z"/>
</svg>